<?xml version="1.0" standalone="no"?>
<!DOCTYPE svg PUBLIC "-//W3C//DTD SVG 20010904//EN"
 "http://www.w3.org/TR/2001/REC-SVG-20010904/DTD/svg10.dtd">
<svg version="1.0" xmlns="http://www.w3.org/2000/svg"
 width="1200.000000pt" height="1200.000000pt" viewBox="0 0 1200.000000 1200.000000"
 preserveAspectRatio="xMidYMid meet">

<g transform="translate(0.000000,1200.000000) scale(0.100000,-0.100000)"
fill="#000000" stroke="none">
<path d="M5735 10239 c-1312 -93 -2478 -856 -3090 -2023 -432 -823 -543 -1774
-314 -2688 16 -65 29 -122 29 -128 0 -5 -24 -10 -54 -10 l-54 0 110 -162 c81
-120 130 -205 184 -322 78 -167 111 -231 201 -383 l54 -92 -218 -323 -218
-323 -283 -5 -284 -5 -24 -28 -24 -28 0 -485 c0 -511 2 -531 45 -548 9 -3 106
-6 216 -6 l199 0 0 -425 c0 -462 1 -468 55 -493 37 -17 863 -17 900 0 54 25
55 31 55 493 l0 425 318 -2 317 -3 3 -437 2 -436 31 -26 31 -26 440 0 440 0
29 29 29 29 0 436 0 436 318 -2 317 -3 5 -438 5 -439 28 -24 28 -24 439 0 439
0 28 24 28 24 5 439 5 438 318 3 317 2 0 -436 0 -436 29 -29 29 -29 440 0 440
0 31 26 31 26 2 436 3 437 318 3 317 2 0 -425 c0 -462 1 -468 55 -493 37 -17
863 -17 900 0 54 25 55 31 55 493 l0 425 203 0 c211 1 222 3 245 47 9 16 12
157 12 508 l0 487 -29 29 -29 29 -276 0 -275 0 -221 326 -221 326 54 92 c86
144 131 231 200 381 47 103 96 188 181 313 l117 172 -55 0 c-31 0 -56 5 -56
10 0 6 13 63 30 128 205 818 137 1675 -197 2442 -259 596 -671 1120 -1191
1513 -723 548 -1640 820 -2547 756z m520 -179 c1646 -122 2992 -1324 3294
-2945 42 -223 54 -370 55 -640 1 -265 -7 -374 -45 -605 -21 -127 -93 -431
-110 -462 -9 -17 -38 -18 -399 -18 -215 0 -390 2 -390 5 0 3 18 58 41 123 119
343 167 658 156 1026 -12 428 -102 794 -287 1171 -120 244 -155 302 -285 475
-412 545 -1041 943 -1706 1079 -360 74 -779 74 -1144 0 -492 -99 -956 -332
-1344 -672 -438 -386 -773 -972 -895 -1567 -45 -224 -59 -389 -53 -640 8 -324
60 -616 158 -881 21 -59 39 -109 39 -113 0 -3 -173 -6 -385 -6 l-385 0 -11 28
c-19 48 -77 284 -98 397 -42 223 -54 370 -55 640 -1 274 8 384 49 623 178
1031 797 1934 1695 2474 633 381 1381 561 2105 508z m-215 -1188 l0 -269 -122
-7 c-303 -17 -579 -83 -817 -197 -84 -40 -107 -47 -117 -37 -44 46 -313 423
-307 429 14 13 199 106 280 139 316 132 654 205 961 209 l122 1 0 -268z m332
242 c301 -41 623 -145 897 -290 116 -61 321 -193 321 -206 0 -5 -82 -96 -182
-203 -177 -191 -182 -195 -204 -180 -150 98 -345 195 -501 249 -102 35 -298
80 -405 92 l-58 7 0 273 c0 170 4 274 10 274 5 0 60 -7 122 -16z m-1697 -650
l155 -209 -27 -20 c-14 -11 -63 -47 -107 -80 -102 -75 -313 -286 -390 -388
-32 -44 -83 -118 -112 -165 -29 -48 -59 -95 -66 -106 -13 -17 -28 -9 -238 124
-124 78 -226 143 -228 145 -2 2 25 49 60 105 179 288 413 543 686 747 53 40
100 69 104 65 5 -5 78 -102 163 -218z m3198 -81 c132 -130 249 -266 327 -379
l51 -73 -227 -152 c-124 -83 -229 -147 -233 -142 -4 4 -25 33 -46 63 -88 124
-175 222 -308 346 l-64 61 180 196 c99 109 185 197 190 197 6 0 64 -53 130
-117z m-1833 -103 c0 -160 10 -200 56 -218 37 -14 252 -52 298 -52 57 0 79 30
131 180 26 74 49 137 51 139 13 14 291 -108 418 -183 l99 -58 -96 -97 c-99
-99 -118 -132 -96 -173 22 -42 273 -320 297 -329 13 -5 32 -9 42 -9 10 0 79
45 153 100 74 55 137 100 140 100 11 0 116 -157 170 -255 60 -107 137 -291
161 -382 17 -64 27 -77 124 -154 167 -134 356 -193 496 -155 36 10 86 31 111
47 25 16 47 29 49 29 13 0 31 -234 30 -395 -1 -327 -61 -627 -194 -967 l-23
-58 -2457 0 -2457 0 -23 58 c-230 588 -261 1174 -95 1752 32 110 122 355 143
388 8 12 350 -200 687 -427 120 -82 156 -101 185 -101 44 0 55 11 174 172 73
99 86 122 86 155 0 21 -6 45 -13 54 -7 9 -66 52 -132 94 -66 43 -122 79 -124
81 -7 6 110 145 188 223 101 102 315 272 325 259 2 -1 42 -60 90 -130 92 -135
115 -158 156 -158 37 1 350 172 366 201 23 42 16 69 -51 189 -36 64 -65 122
-65 127 0 28 350 88 538 92 l62 1 0 -140z m281 109 c38 -7 69 -17 68 -23 0 -6
-12 -45 -27 -86 l-27 -75 -45 4 c-25 1 -48 5 -52 8 -13 7 -10 183 3 183 5 0
41 -5 80 -11z m-1017 -207 c26 -46 46 -85 44 -87 -17 -15 -120 -66 -128 -63
-5 1 -35 39 -65 83 l-56 80 77 37 c43 21 78 37 79 35 2 -1 24 -40 49 -85z
m2043 -306 l62 -59 -80 -60 c-92 -69 -78 -71 -172 36 l-50 58 63 64 64 65 26
-22 c14 -13 53 -49 87 -82z m1065 -243 c80 -168 128 -296 173 -460 39 -141 39
-140 -30 -201 -83 -73 -191 -81 -309 -23 -71 35 -206 137 -206 155 0 20 -76
208 -115 286 -20 39 -35 73 -33 75 13 11 444 304 449 305 3 0 35 -62 71 -137z
m-3999 -224 c34 -23 64 -43 66 -45 2 -2 -12 -23 -29 -48 -20 -28 -37 -43 -45
-38 -6 4 -39 27 -73 51 -66 47 -66 44 -24 109 18 27 23 26 105 -29z m3638
-2235 c83 -46 126 -117 140 -231 14 -109 9 -114 -99 -111 l-87 3 -6 65 c-8 82
-15 97 -50 115 -41 22 -84 18 -115 -8 -39 -34 -43 -89 -43 -501 0 -275 -3
-351 -13 -357 -10 -7 -10 -9 0 -9 6 0 12 -12 12 -27 0 -48 20 -102 43 -118 12
-8 40 -15 63 -15 35 0 47 5 68 31 29 34 29 36 26 101 -3 79 7 88 105 88 82 0
85 -1 91 -26 4 -14 4 -60 2 -102 -5 -89 -27 -139 -85 -193 -66 -64 -96 -74
-208 -74 -92 0 -104 2 -155 30 -60 33 -112 99 -129 163 -6 21 -10 235 -11 500
0 447 5 542 30 542 6 0 10 10 10 23 0 33 25 63 77 94 105 61 240 68 334 17z
m-4533 0 c63 -31 106 -81 129 -149 14 -40 18 -84 18 -220 0 -219 -13 -264 -97
-347 l-59 -58 17 -57 c9 -32 27 -78 39 -103 26 -52 87 -217 89 -240 1 -8 10
-30 20 -49 31 -59 45 -106 34 -124 -7 -14 -25 -17 -96 -17 -93 0 -112 8 -112
45 0 12 -4 25 -9 30 -5 6 -23 55 -40 110 -89 285 -128 390 -145 393 -16 3 -17
-13 -15 -220 1 -122 0 -254 -2 -293 l-4 -70 -70 -2 c-38 -1 -81 0 -93 3 l-24
5 2 207 c1 114 -1 418 -4 677 -3 291 -1 476 5 487 9 16 27 18 187 18 172 0
180 -1 230 -26z m481 12 c20 -24 19 -1330 -1 -1368 -11 -23 -56 -23 -80 -1
-18 16 -18 16 -12 -1 6 -15 1 -17 -42 -14 l-49 3 -1 525 c-1 289 3 535 7 548
6 14 5 22 -2 22 -8 0 -7 6 2 16 10 12 10 17 1 23 -9 5 -12 41 -11 119 1 102 3
114 22 127 28 20 150 21 166 1z m607 -13 c82 -44 132 -130 140 -240 2 -38 7
-245 10 -461 4 -346 3 -400 -11 -450 -51 -174 -121 -212 -396 -212 -134 0
-159 2 -170 17 -12 13 -14 133 -15 677 -1 398 2 668 8 679 9 17 24 18 201 15
175 -3 196 -5 233 -25z m783 13 c7 -8 10 -40 9 -77 l-3 -64 -142 -3 -143 -3 0
-32 c-1 -52 -1 -339 -1 -376 1 -27 4 -32 13 -23 18 18 192 16 207 -2 7 -9 11
-42 9 -88 l-3 -73 -113 -3 -113 -3 3 -227 3 -227 139 -3 c82 -1 145 -7 153
-14 17 -14 18 -132 1 -146 -20 -15 -454 -22 -475 -7 -16 12 -18 52 -20 456 -1
244 -4 547 -7 673 -4 161 -3 233 5 243 17 19 461 19 478 -1z m669 -59 c2 -42
-2 -74 -9 -83 -8 -10 -36 -14 -100 -14 l-89 0 0 -34 c0 -19 -5 -38 -11 -42 -6
-3 -8 -17 -5 -30 4 -13 9 -270 12 -569 l5 -546 -93 3 -93 3 -3 105 c-2 85 -10
819 -12 1053 l0 57 -100 0 -100 0 0 73 c0 44 5 78 12 85 9 9 84 12 298 10
l285 -3 3 -68z m555 40 c51 -30 99 -94 118 -157 16 -57 23 -248 11 -337 -7
-48 -22 -103 -36 -131 -23 -45 -97 -124 -125 -133 -9 -3 6 -50 49 -154 94
-231 160 -402 160 -420 0 -23 -42 -35 -120 -35 -84 0 -83 -2 -139 160 -103
294 -150 415 -163 415 -11 0 -12 -48 -10 -260 2 -143 6 -263 8 -267 3 -4 0
-17 -6 -28 -9 -18 -21 -20 -96 -20 -79 0 -85 2 -93 23 -5 12 -9 321 -10 686
-1 508 1 667 11 678 10 12 44 14 202 11 189 -3 191 -3 239 -31z m695 20 c13
-16 30 -125 77 -492 19 -148 53 -400 75 -560 22 -159 37 -297 34 -307 -4 -15
-17 -18 -83 -18 -54 0 -82 4 -90 14 -12 14 -22 68 -41 211 -19 150 -6 135
-115 135 -51 0 -96 -4 -99 -8 -3 -5 -15 -80 -27 -168 -12 -87 -27 -165 -32
-171 -6 -8 -36 -13 -82 -13 -82 0 -101 12 -91 57 3 16 8 55 10 88 6 86 35 255
51 287 7 14 9 30 4 35 -5 5 0 66 11 138 23 150 27 165 43 165 9 0 8 3 -1 8
-10 7 -4 67 28 288 22 153 44 289 50 302 9 21 14 22 139 22 94 0 131 -4 139
-13z m1200 0 c7 -8 13 -126 18 -307 3 -162 8 -296 9 -298 2 -2 22 57 45 130
24 73 45 137 48 143 3 5 7 19 8 31 1 12 13 46 27 75 13 30 32 84 42 122 9 37
26 78 37 92 18 23 26 25 108 25 62 0 90 -4 93 -12 4 -14 -29 -109 -42 -118 -4
-3 -7 -14 -8 -25 0 -11 -41 -135 -92 -275 l-92 -255 21 -47 c37 -85 81 -219
77 -231 -2 -7 6 -24 19 -39 12 -15 32 -58 44 -95 12 -37 40 -112 62 -167 21
-54 37 -104 34 -112 -8 -20 -179 -20 -195 0 -7 8 -22 45 -35 82 -47 137 -177
500 -192 534 -13 32 -14 5 -13 -280 1 -173 1 -320 0 -327 -3 -26 -50 -40 -104
-30 -87 15 -82 5 -82 181 0 86 -3 156 -7 156 -9 0 -11 1021 -2 1044 5 13 21
16 84 16 50 0 81 -4 88 -13z m-308 -1574 c0 -12 -204 -155 -332 -232 -379
-230 -827 -397 -1263 -471 -295 -50 -278 -50 -2552 -50 l-2123 0 2 368 3 367
2192 5 c1205 3 2195 8 2199 13 4 4 427 7 941 7 513 0 933 -3 933 -7z m1868
-385 l2 -368 -1447 1 -1448 0 105 38 c395 143 781 360 1085 609 l110 91 795
-2 795 -2 3 -367z m-7038 -923 l0 -375 -315 0 -315 0 0 375 0 375 315 0 315 0
0 -375z m1645 0 l0 -370 -317 -3 -318 -2 0 375 0 375 318 -2 317 -3 0 -370z
m1640 0 l0 -370 -315 0 -315 0 -3 360 c-1 198 0 366 3 373 3 10 72 12 317 10
l313 -3 0 -370z m1645 0 l0 -375 -317 2 -318 3 -3 360 c-1 198 0 366 3 372 3
10 76 13 320 13 l315 0 0 -375z m1640 0 l0 -375 -315 0 -315 0 0 375 0 375
315 0 315 0 0 -375z"/>
<path d="M3276 4994 c-9 -47 2 -359 15 -399 9 -29 11 -30 62 -27 104 7 125 49
121 242 -2 113 -21 182 -55 200 -10 6 -45 13 -77 16 l-59 7 -7 -39z"/>
<path d="M4366 5021 c-8 -12 -6 -861 2 -975 l4 -68 62 7 c66 7 99 23 116 56
15 26 14 816 -1 892 -13 72 -34 90 -113 95 -40 3 -66 0 -70 -7z"/>
<path d="M6349 5008 c-3 -66 3 -413 8 -424 6 -17 88 -19 130 -3 61 23 66 37
65 193 -1 147 -9 185 -44 224 -18 19 -32 22 -90 22 -47 0 -68 -4 -69 -12z"/>
<path d="M7162 4865 c-7 -44 -19 -104 -26 -132 -8 -29 -12 -61 -9 -71 2 -10
-5 -84 -16 -165 -12 -81 -21 -149 -21 -152 0 -3 36 -5 81 -5 79 0 81 1 76 23
-3 12 -15 103 -27 202 -12 99 -27 225 -34 280 l-12 100 -12 -80z"/>
</g>
</svg>
